/vscmnt/brussel_pixiu_data/_data_brussel/112/vsc11236/PredSimResults/SUBJ09mtu3D/weighted-trackIG/worker_01.mot
version=1
nRows=6
nColumns=50
inDegrees=yes
endheader
                time	         pelvis_tilt	         pelvis_list	     pelvis_rotation	           pelvis_tx	           pelvis_ty	           pelvis_tz	       hip_flexion_r	     hip_adduction_r	      hip_rotation_r	        knee_angle_r	       ankle_angle_r	         mtp_angle_r	       hip_flexion_l	     hip_adduction_l	      hip_rotation_l	        knee_angle_l	       ankle_angle_l	         mtp_angle_l	    lumbar_extension	      lumbar_bending	     lumbar_rotation	 ercspn_r/activation	 intobl_r/activation	 extobl_r/activation	    abd_r/activation	    add_r/activation	hamstrings_r/activation	bifemsh_r/activation	glut_max_r/activation	iliopsoas_r/activation	rect_fem_r/activation	  vasti_r/activation	gastroc_r/activation	 soleus_r/activation	tib_ant_r/activation	 ercspn_l/activation	 intobl_l/activation	 extobl_l/activation	    abd_l/activation	    add_l/activation	hamstrings_l/activation	bifemsh_l/activation	glut_max_l/activation	iliopsoas_l/activation	rect_fem_l/activation	  vasti_l/activation	gastroc_l/activation	 soleus_l/activation	tib_ant_l/activation	
          1.26937618	         -7.30250081	         -4.54437461	          7.42746085	          1.51055765	          0.98192721	         -0.01165327	         30.86885084	          1.48830266	         -5.00595979	         -1.73862134	          6.55149609	          0.21191862	        -11.34716499	         -4.89037821	          5.17132446	         -6.14229214	         10.75635401	         26.86819885	         -0.87454649	          2.86058078	         -3.79968987	          0.09467782	          0.14430013	          0.03431710	          0.01533431	          0.05730829	          0.13392811	          0.22668633	          0.01022418	          0.12154192	          0.00999999	          0.00999999	          0.00999999	          0.00999999	          0.26049907	          0.04005596	          0.00999999	          0.00999999	          0.05624872	          0.00999999	          0.01904671	          0.13407714	          0.04642658	          0.46526877	          0.01211563	          0.01000001	          0.32831345	          0.27737534	          0.01613987	
          1.28206994	         -7.39606488	         -4.49289010	          7.44408317	          1.52858098	          0.97988531	         -0.01147251	         30.96744151	          1.58487498	         -4.81785797	         -3.38653375	          6.14374075	          0.21948047	        -11.52471897	         -4.85537730	          4.79467987	         -7.58539854	         10.08844565	         28.88469634	         -0.59459371	          3.18610123	         -3.93690185	          0.07814521	          0.11910249	          0.02832466	          0.01265664	          0.08557055	          0.11519495	          0.18710244	          0.06125147	          0.10031831	          0.00999999	          0.00999999	          0.02248641	          0.01467885	          0.27124256	          0.07731111	          0.00999999	          0.00999999	          0.04642659	          0.02075033	          0.01982646	          0.11066464	          0.03831959	          0.45921780	          0.01000001	          0.01583761	          0.30118883	          0.26012423	          0.01332153	
          1.29476370	         -7.46878586	         -4.44188672	          7.41292362	          1.54702846	          0.97808951	         -0.01121425	         30.90394574	          1.67701724	         -4.61813409	         -5.01185319	          5.68122487	          0.20301076	        -11.59944053	         -4.81476531	          4.39253507	         -9.28214908	          9.25053952	         30.95041849	         -0.29222929	          3.52300885	         -4.04639994	          0.06475290	          0.09830485	          0.02337862	          0.06335150	          0.07062825	          0.09905246	          0.15443067	          0.10846725	          0.08280076	          0.00999999	          0.00999999	          0.01855984	          0.01211564	          0.32247422	          0.07470425	          0.00999999	          0.00999999	          0.03831959	          0.01712692	          0.01636437	          0.09134041	          0.03162823	          0.44243379	          0.01198886	          0.02154682	          0.26211152	          0.23141671	          0.01099533	
          1.30745746	         -7.52356824	         -4.38298889	          7.33352724	          1.56558452	          0.97679523	         -0.01086075	         30.70779835	          1.78047000	         -4.44996174	         -6.39837738	          5.04710096	          0.18182058	        -11.47349297	         -4.75449456	          3.97231949	        -11.35674684	          8.20485605	         33.01794329	         -0.00163949	          3.85925222	         -4.12284532	          0.07199838	          0.08113889	          0.01929625	          0.12262802	          0.10175597	          0.08175595	          0.12746404	          0.15732636	          0.06834212	          0.00999999	          0.00999999	          0.01531893	          0.01000001	          0.35613841	          0.11285872	          0.00999999	          0.00999999	          0.03162824	          0.02543074	          0.01735818	          0.07539058	          0.02610532	          0.42398828	          0.01211562	          0.01778432	          0.21634169	          0.19100680	          0.00999999	
          1.32015122	         -7.55924795	         -4.32070106	          7.21021044	          1.58400741	          0.97617274	         -0.01042225	         30.45326580	          1.90172221	         -4.29755768	         -7.72942458	          4.55879626	          0.15072624	        -11.05508939	         -4.67611500	          3.53842611	        -13.94315371	          6.96158538	         34.94600548	          0.25629632	          4.19956066	         -4.16507310	          0.07098989	          0.06697044	          0.01592674	          0.15864058	          0.12698211	          0.06747975	          0.10520631	          0.18801313	          0.05640824	          0.00999999	          0.01469223	          0.01264394	          0.00999999	          0.37905490	          0.14481374	          0.00999999	          0.00999999	          0.02610532	          0.04360874	          0.01432712	          0.06222590	          0.02154682	          0.39184541	          0.01000000	          0.01467883	          0.17856417	          0.15765325	          0.00999999	
          1.33284499	         -7.57443307	         -4.25095663	          7.04465102	          1.60214489	          0.97627574	         -0.00991358	         30.16666999	          2.03243485	         -4.15202616	         -9.05526349	          4.29067389	          0.12943711	        -10.29219713	         -4.57708889	          3.08974071	        -17.11048115	          5.54985198	         36.47963191	          0.46995868	          4.53829081	         -4.17111729	          0.07090817	          0.05527608	          0.01314562	          0.17236207	          0.12124403	          0.05782377	          0.08683522	          0.19634728	          0.04655825	          0.00999999	          0.06265120	          0.01043606	          0.01000000	          0.38387858	          0.16232878	          0.00999999	          0.00999999	          0.02154682	          0.06284248	          0.01761754	          0.05136003	          0.01778432	          0.33580368	          0.00999999	          0.01211561	          0.14738335	          0.13012389	          0.00999999	
